<?xml version="1.0" standalone="no"?>
<!DOCTYPE svg PUBLIC "-//W3C//DTD SVG 20010904//EN"
 "http://www.w3.org/TR/2001/REC-SVG-20010904/DTD/svg10.dtd">
<svg version="1.0" xmlns="http://www.w3.org/2000/svg"
 width="359.000000pt" height="359.000000pt" viewBox="0 0 359.000000 359.000000"
 preserveAspectRatio="xMidYMid meet">
<metadata>
Created by potrace 1.11, written by Peter Selinger 2001-2013
</metadata>
<g transform="translate(0.000000,359.000000) scale(0.100000,-0.100000)"
fill="#000000" stroke="none">
<path d="M2710 2970 c13 -24 17 -25 17 -5 0 8 -6 16 -14 19 -11 4 -11 1 -3
-14z"/>
<path d="M2649 2948 c-7 -9 -17 -15 -21 -12 -5 3 -21 -2 -36 -12 -27 -18 -31
-20 -53 -23 -5 0 -7 -5 -4 -11 3 -5 -1 -10 -10 -10 -10 0 -13 -5 -9 -12 5 -8
1 -7 -10 2 -17 13 -18 13 -15 -4 2 -11 13 -20 26 -21 12 -1 20 2 18 6 -3 4 9
12 26 18 17 6 28 15 25 20 -3 5 3 7 14 4 12 -3 20 0 20 6 0 7 -4 10 -9 6 -5
-3 -12 -1 -15 4 -7 11 13 9 33 -3 10 -7 12 -6 6 4 -6 10 -4 12 8 7 12 -4 14
-2 10 10 -4 11 -2 14 5 9 7 -4 12 -2 12 5 0 8 4 8 13 1 10 -8 13 -7 14 6 2 23
-32 23 -48 0z m-84 -58 c3 -5 1 -10 -4 -10 -6 0 -11 5 -11 10 0 6 2 10 4 10 3
0 8 -4 11 -10z"/>
<path d="M2004 2897 c-16 -12 -25 -16 -21 -10 5 8 -4 7 -29 -3 -52 -22 -67
-23 -641 -24 -307 0 -523 -4 -523 -10 0 -5 -9 -7 -20 -5 -11 2 -20 -1 -20 -7
0 -5 -7 -7 -16 -4 -8 3 -12 2 -9 -4 6 -9 -8 -14 -28 -11 -5 1 -6 -3 -2 -9 3
-5 1 -10 -5 -10 -6 0 -15 -11 -20 -25 -5 -14 -13 -25 -18 -25 -4 0 -8 -8 -8
-17 -1 -10 -5 -34 -9 -53 -5 -19 -10 -426 -12 -905 -4 -862 -4 -870 15 -850
11 11 19 22 19 25 0 7 13 42 24 63 5 10 7 23 3 29 -4 7 -3 8 4 4 8 -5 12 2 12
19 0 17 4 24 12 19 7 -4 8 -3 4 4 -4 7 -4 18 1 25 4 6 8 19 10 27 1 8 7 16 13
18 5 2 8 7 5 12 -3 5 0 21 7 37 6 15 12 32 12 36 1 4 8 12 16 17 8 5 11 12 8
15 -4 4 2 23 13 42 12 20 14 32 7 28 -7 -4 -5 0 5 8 10 9 18 19 18 24 -1 22
12 52 20 47 5 -3 10 1 11 8 3 27 5 34 29 83 13 28 27 52 32 53 4 2 7 12 7 22
0 11 7 23 16 28 9 5 15 12 15 15 -4 25 0 37 10 31 7 -4 10 -1 7 7 -3 8 3 25
13 38 10 13 16 28 12 34 -4 7 0 8 12 3 16 -6 16 -4 4 11 -8 9 -9 14 -2 10 7
-4 14 1 18 13 3 11 11 20 16 20 6 0 8 4 5 8 -3 5 4 18 14 30 11 12 20 28 20
37 0 9 7 18 15 21 8 4 12 10 9 15 -3 5 2 12 10 15 9 3 14 9 11 14 -7 11 41 71
50 62 5 -4 5 -2 1 5 -4 7 2 21 14 33 11 11 17 20 12 20 -4 1 4 10 17 20 13 11
19 20 15 20 -5 0 -1 7 10 15 10 8 15 19 10 26 -4 8 -3 10 4 5 7 -4 12 -1 12 9
0 9 4 13 10 10 5 -3 12 6 16 20 3 13 10 23 14 20 5 -3 14 8 22 25 7 16 16 30
20 30 4 0 19 17 33 38 14 20 31 37 38 37 6 0 12 6 12 13 0 8 9 20 20 28 11 8
20 20 20 27 1 7 6 11 12 10 7 -2 15 6 18 17 4 11 10 18 15 15 10 -6 32 29 24
38 -3 3 0 8 7 13 8 5 10 3 4 -6 -5 -8 -3 -11 6 -8 8 3 13 11 11 17 -1 6 5 11
13 11 8 0 15 4 15 8 0 5 7 17 16 28 8 10 12 13 8 5 -5 -10 -3 -12 5 -7 7 5 10
15 7 23 -3 8 -2 12 3 9 11 -7 51 28 51 44 0 7 3 11 6 7 8 -8 44 25 38 35 -3 5
-2 8 3 7 21 -4 34 2 27 13 -5 8 -2 9 9 5 9 -3 19 -1 23 5 5 7 2 8 -7 4 -8 -4
-6 -1 3 7 10 8 14 18 10 22 -4 5 -1 5 6 1 8 -5 21 0 33 13 18 19 32 25 51 22
4 0 4 7 1 16 -4 11 -3 14 5 9 7 -4 12 -3 12 3 0 5 9 13 20 16 11 4 18 11 14
16 -3 5 -2 9 3 8 22 -4 43 2 38 11 -5 9 6 14 26 12 3 -1 13 12 22 28 14 24 15
29 3 33 -8 3 -27 -4 -42 -16z"/>
<path d="M2453 2841 c-5 -18 -8 -19 -21 -9 -9 7 -13 8 -9 2 3 -6 -8 -16 -28
-24 -19 -7 -32 -17 -29 -21 2 -4 0 -10 -6 -14 -5 -3 -10 -1 -10 6 0 7 -8 3
-17 -8 -10 -11 -24 -18 -30 -16 -7 3 -13 -1 -13 -7 0 -7 -7 -10 -15 -6 -8 3
-15 1 -15 -5 0 -6 -5 -7 -10 -4 -6 4 -9 1 -8 -7 2 -7 -3 -12 -10 -10 -7 1 -24
-10 -37 -24 -14 -15 -25 -23 -25 -18 0 5 -7 1 -15 -10 -8 -10 -19 -15 -26 -10
-8 4 -10 3 -5 -4 4 -7 2 -12 -5 -12 -6 0 -22 -11 -34 -24 -13 -14 -26 -22 -31
-18 -4 4 -5 0 -1 -9 4 -11 0 -16 -11 -15 -9 0 -16 -5 -14 -12 1 -6 -4 -11 -10
-10 -7 2 -12 -2 -11 -9 2 -7 -6 -10 -19 -8 -11 3 -18 2 -15 -2 10 -9 -34 -44
-46 -36 -5 3 -8 2 -5 -3 5 -8 -23 -41 -39 -46 -5 -2 -7 -6 -5 -10 1 -5 -3 -8
-9 -8 -5 0 -7 -4 -4 -10 3 -6 -1 -7 -9 -4 -11 4 -16 0 -16 -11 0 -9 -4 -13
-10 -10 -5 3 -10 2 -10 -4 0 -5 -9 -12 -19 -16 -12 -4 -18 -12 -14 -21 3 -8
-1 -14 -10 -14 -9 0 -19 -5 -23 -12 -5 -7 -3 -8 7 -3 12 8 12 6 0 -8 -7 -9
-17 -14 -22 -12 -4 3 -6 -4 -4 -16 3 -17 2 -19 -10 -9 -12 10 -13 8 -10 -9 2
-14 -1 -18 -11 -14 -13 5 -19 -8 -14 -32 1 -5 -1 -7 -5 -4 -9 10 -58 -38 -50
-50 4 -7 0 -8 -11 -4 -12 4 -15 3 -10 -5 4 -7 1 -15 -7 -18 -8 -3 -17 -15 -20
-26 -3 -11 -10 -17 -16 -13 -6 3 -9 0 -5 -8 3 -8 -5 -18 -18 -25 -13 -6 -17
-11 -10 -11 7 -1 10 -6 7 -11 -4 -6 -11 -7 -17 -4 -7 5 -9 1 -5 -9 4 -12 2
-14 -11 -10 -15 6 -16 5 -2 -12 8 -10 11 -16 5 -14 -5 3 -18 -2 -27 -13 -12
-11 -13 -18 -6 -18 7 0 2 -7 -11 -16 -18 -13 -20 -18 -10 -25 8 -5 19 -9 24
-9 6 0 3 5 -5 10 -12 8 -11 10 7 10 13 0 24 8 28 20 4 11 22 37 41 58 19 20
34 43 34 50 0 7 5 10 10 7 6 -3 11 -1 11 4 1 6 2 15 3 20 0 5 5 13 10 18 6 5
6 2 1 -7 -8 -13 -7 -13 8 -1 9 7 17 20 17 27 0 8 5 13 12 11 7 -1 12 5 13 13
0 8 8 14 17 14 10 -1 17 1 16 5 -3 15 15 41 29 41 10 0 13 6 9 16 -3 8 -2 12
4 9 6 -3 10 -1 10 5 0 6 5 8 10 5 6 -3 10 -1 10 5 0 17 29 42 40 35 6 -4 10
-3 9 2 -4 23 2 35 16 30 8 -4 17 -1 21 5 4 7 3 8 -4 4 -7 -4 -12 -3 -12 2 0 6
7 13 16 16 8 3 12 11 8 17 -4 8 -3 9 4 5 6 -4 21 4 33 18 12 14 26 23 30 20 5
-3 6 1 3 9 -3 8 0 18 7 23 8 4 10 3 5 -4 -4 -7 -2 -12 3 -12 10 0 15 14 12 32
0 4 7 4 16 1 12 -5 14 -3 8 7 -6 10 -4 12 8 7 11 -4 17 -1 17 8 0 8 3 14 8 14
20 -3 32 2 32 16 0 8 6 14 13 13 6 -2 11 3 9 10 -1 6 5 12 13 12 8 0 15 8 16
18 0 9 3 12 5 5 5 -12 51 26 47 38 -1 4 7 5 17 2 18 -5 25 5 21 30 -1 5 3 6 8
2 6 -3 19 3 31 15 11 11 27 20 36 20 8 0 12 5 9 10 -3 6 -1 10 5 10 6 0 29 12
53 27 23 14 44 25 46 24 2 -2 8 4 13 13 5 9 14 14 19 10 5 -3 8 0 7 7 -2 7 3
14 10 15 6 1 15 3 20 4 4 1 10 2 15 1 4 0 6 5 5 12 -2 6 5 11 14 9 9 -1 19 2
23 8 4 6 3 9 -2 8 -4 -1 -18 4 -31 11 -21 11 -24 10 -29 -8z"/>
<path d="M2874 2181 c4 -6 2 -11 -4 -11 -6 0 -9 -4 -6 -9 8 -12 -39 -72 -49
-63 -5 4 -5 -1 -2 -10 4 -10 2 -18 -4 -18 -6 0 -8 -4 -5 -9 4 -5 1 -11 -4 -13
-6 -2 -12 -11 -14 -21 -1 -10 -16 -32 -32 -50 -16 -17 -22 -27 -14 -23 8 4 7
1 -4 -8 -10 -8 -15 -19 -12 -25 4 -5 -3 -15 -14 -21 -11 -6 -20 -17 -20 -25 0
-8 -4 -15 -9 -15 -5 0 -13 -9 -16 -20 -4 -11 -11 -18 -16 -14 -5 3 -9 2 -8 -3
4 -14 -24 -63 -32 -57 -5 3 -9 -2 -9 -10 0 -9 -5 -16 -12 -16 -6 0 -9 -3 -5
-6 3 -3 -10 -22 -28 -41 -19 -20 -32 -40 -29 -45 3 -4 -2 -8 -10 -8 -9 0 -16
-6 -16 -14 0 -8 -7 -17 -16 -20 -8 -3 -13 -10 -9 -15 3 -5 -4 -12 -15 -16 -11
-3 -19 -12 -17 -18 1 -7 -4 -11 -11 -9 -6 1 -11 -1 -10 -6 5 -13 -41 -64 -51
-57 -7 4 -8 -1 -4 -11 4 -12 3 -15 -5 -10 -7 4 -12 3 -12 -3 0 -5 -18 -28 -40
-51 -22 -23 -40 -46 -40 -51 0 -5 -7 -9 -16 -9 -8 0 -13 -4 -9 -9 3 -5 -4 -12
-15 -16 -11 -3 -20 -11 -20 -16 0 -6 -4 -8 -9 -4 -5 3 -12 -4 -16 -15 -4 -11
-10 -18 -15 -15 -5 3 -16 -7 -24 -22 -8 -15 -15 -24 -16 -19 0 5 -11 -3 -25
-18 -13 -14 -29 -26 -35 -26 -5 0 -9 -5 -7 -12 1 -7 -4 -12 -11 -13 -8 0 -20
-11 -27 -25 -8 -14 -14 -21 -15 -15 0 5 -13 -4 -28 -21 -15 -17 -34 -28 -41
-26 -8 3 -11 0 -7 -7 6 -10 -5 -15 -26 -12 -4 0 -4 -7 -1 -17 3 -9 3 -14 -2
-10 -4 4 -14 0 -22 -8 -8 -8 -20 -11 -26 -7 -7 3 -9 3 -5 -2 10 -10 -31 -47
-44 -39 -4 3 -7 0 -6 -8 2 -7 -3 -12 -9 -10 -7 1 -13 -5 -13 -14 0 -8 -4 -12
-10 -9 -5 3 -10 1 -10 -5 0 -6 -4 -8 -10 -5 -5 3 -10 -1 -10 -10 0 -9 -4 -13
-10 -10 -5 3 -10 1 -10 -5 0 -6 -5 -8 -10 -5 -6 3 -13 -1 -16 -10 -4 -9 -13
-14 -21 -11 -8 3 -11 1 -8 -4 3 -6 -1 -10 -10 -10 -9 0 -13 -4 -10 -10 3 -5
-3 -10 -14 -10 -12 0 -21 -4 -21 -9 0 -5 -9 -13 -20 -16 -11 -3 -20 -14 -20
-23 0 -14 -2 -15 -10 -2 -8 12 -10 12 -16 -3 -3 -9 -11 -17 -16 -17 -6 0 -17
-8 -25 -17 -10 -12 -12 -13 -8 -3 4 8 -3 5 -14 -8 -11 -13 -25 -21 -31 -17 -5
3 -10 -1 -10 -10 0 -9 -4 -13 -10 -10 -5 3 -10 2 -10 -4 0 -6 -6 -8 -13 -5 -8
3 -18 -5 -25 -18 -6 -13 -11 -17 -11 -9 -1 10 -7 7 -20 -7 -10 -12 -20 -19
-23 -17 -3 3 -11 -1 -18 -10 -7 -8 -19 -15 -27 -15 -7 0 -16 -6 -19 -14 -3 -8
-12 -12 -20 -9 -8 3 -14 0 -14 -6 0 -6 -9 -11 -21 -11 -11 0 -18 -4 -15 -9 5
-8 -30 -25 -47 -22 -4 1 -10 -6 -13 -14 -3 -8 -10 -12 -15 -9 -5 3 -9 0 -9 -6
0 -6 -4 -9 -9 -5 -5 3 -16 -1 -24 -9 -8 -8 -17 -12 -21 -9 -3 4 -6 1 -6 -5 0
-7 -7 -12 -15 -12 -8 0 -15 -7 -15 -16 0 -15 68 -16 858 -10 472 4 871 9 887
12 45 9 48 10 77 24 15 7 25 17 22 21 -3 5 -1 9 4 9 6 0 12 10 15 23 3 12 9
346 14 742 10 994 11 899 -11 903 -11 3 -16 0 -12 -7z"/>
</g>
</svg>
